TITLE ""
FILE "Disc6Track53.mp3" MP3
  TRACK 01 AUDIO
    TITLE "Disc6Track53_01"
    INDEX 01 00:00:00
  TRACK 02 AUDIO
    TITLE "Disc6Track53_02"
    INDEX 01 00:01:04
  TRACK 03 AUDIO
    TITLE "Disc6Track53_03"
    INDEX 01 00:03:65
  TRACK 04 AUDIO
    TITLE "Disc6Track53_04"
    INDEX 01 00:05:06
  TRACK 05 AUDIO
    TITLE "Disc6Track53_05"
    INDEX 01 00:10:44
  TRACK 06 AUDIO
    TITLE "Disc6Track53_06"
    INDEX 01 00:10:75
  TRACK 07 AUDIO
    TITLE "Disc6Track53_07"
    INDEX 01 00:12:12
  TRACK 08 AUDIO
    TITLE "Disc6Track53_08"
    INDEX 01 00:14:08
  TRACK 09 AUDIO
    TITLE "Disc6Track53_09"
    INDEX 01 00:15:18
  TRACK 10 AUDIO
    TITLE "Disc6Track53_10"
    INDEX 01 00:19:04
  TRACK 11 AUDIO
    TITLE "Disc6Track53_11"
    INDEX 01 00:19:35
  TRACK 12 AUDIO
    TITLE "Disc6Track53_12"
    INDEX 01 00:20:40
  TRACK 13 AUDIO
    TITLE "Disc6Track53_13"
    INDEX 01 00:22:49
  TRACK 14 AUDIO
    TITLE "Disc6Track53_14"
    INDEX 01 00:23:54
  TRACK 15 AUDIO
    TITLE "Disc6Track53_15"
    INDEX 01 00:27:29
  TRACK 16 AUDIO
    TITLE "Disc6Track53_16"
    INDEX 01 00:27:60
  TRACK 17 AUDIO
    TITLE "Disc6Track53_17"
    INDEX 01 00:28:63
  TRACK 18 AUDIO
    TITLE "Disc6Track53_18"
    INDEX 01 00:31:40
  TRACK 19 AUDIO
    TITLE "Disc6Track53_19"
    INDEX 01 00:32:42
  TRACK 20 AUDIO
    TITLE "Disc6Track53_20"
    INDEX 01 00:35:38
  TRACK 21 AUDIO
    TITLE "Disc6Track53_21"
    INDEX 01 00:35:69
  TRACK 22 AUDIO
    TITLE "Disc6Track53_22"
    INDEX 01 00:37:06
  TRACK 23 AUDIO
    TITLE "Disc6Track53_23"
    INDEX 01 00:39:32
  TRACK 24 AUDIO
    TITLE "Disc6Track53_24"
    INDEX 01 00:40:41
  TRACK 25 AUDIO
    TITLE "Disc6Track53_25"
    INDEX 01 00:47:37
  TRACK 26 AUDIO
    TITLE "Disc6Track53_26"
    INDEX 01 00:48:01
  TRACK 27 AUDIO
    TITLE "Disc6Track53_27"
    INDEX 01 00:49:17
  TRACK 28 AUDIO
    TITLE "Disc6Track53_28"
    INDEX 01 00:50:69
  TRACK 29 AUDIO
    TITLE "Disc6Track53_29"
    INDEX 01 00:52:07
  TRACK 30 AUDIO
    TITLE "Disc6Track53_30"
    INDEX 01 00:54:63
  TRACK 31 AUDIO
    TITLE "Disc6Track53_31"
    INDEX 01 00:55:19
  TRACK 32 AUDIO
    TITLE "Disc6Track53_32"
    INDEX 01 00:56:30
  TRACK 33 AUDIO
    TITLE "Disc6Track53_33"
    INDEX 01 00:58:08
  TRACK 34 AUDIO
    TITLE "Disc6Track53_34"
    INDEX 01 00:59:19
  TRACK 35 AUDIO
    TITLE "Disc6Track53_35"
    INDEX 01 01:02:60
  TRACK 36 AUDIO
    TITLE "Disc6Track53_36"
    INDEX 01 01:03:17
  TRACK 37 AUDIO
    TITLE "Disc6Track53_37"
    INDEX 01 01:04:26
  TRACK 38 AUDIO
    TITLE "Disc6Track53_38"
    INDEX 01 01:05:45
  TRACK 39 AUDIO
    TITLE "Disc6Track53_39"
    INDEX 01 01:06:62
  TRACK 40 AUDIO
    TITLE "Disc6Track53_40"
    INDEX 01 01:08:41
